<svg data-v-423bf9ae="" xmlns="http://www.w3.org/2000/svg" viewBox="0 0 112.12007708121976 60" class="font"><!----><!----><defs data-v-423bf9ae=""><linearGradient data-v-423bf9ae="" gradientTransform="rotate(25)" id="5a7135c5-0818-4579-92c0-054f2ad68001" x1="0%" y1="0%" x2="100%" y2="0%"><stop data-v-423bf9ae="" offset="0%" style="stop-color: rgb(50, 20, 45); stop-opacity: 1;"></stop><stop data-v-423bf9ae="" offset="100%" style="stop-color: rgb(50, 20, 45); stop-opacity: 1;"></stop></linearGradient></defs><g data-v-423bf9ae="" id="5263e8a8-e36f-47a9-9155-77a00e3c9e37" fill="url(#5a7135c5-0818-4579-92c0-054f2ad68001)" transform="matrix(5.628517904206723,0,0,5.628517904206723,1.3508441382482346,-14.015009396733888)"><path d="M1.50 8.82L1.50 8.82L1.50 8.82Q1.40 8.82 1.37 8.69L1.37 8.69L1.37 8.69Q1.37 8.46 1.71 8.15L1.71 8.15L1.71 8.15Q2.04 7.84 2.25 7.76L2.25 7.76L2.25 7.76Q2.45 7.67 3.60 7.64L3.60 7.64L3.79 7.42L3.79 7.42Q8.05 2.51 9.70 2.51L9.70 2.51L9.70 2.51Q9.84 2.49 10.02 2.49L10.02 2.49L10.02 2.49Q10.99 2.49 10.99 2.95L10.99 2.95L10.99 2.95Q10.99 3.04 10.81 3.40L10.81 3.40L10.18 4.66L10.18 4.66Q9.73 5.56 9.31 6.48L9.31 6.48L9.31 6.48Q7.04 11.48 6.68 13.03L6.68 13.03L6.68 13.03Q6.68 13.15 6.39 13.15L6.39 13.15L6.39 13.15Q6.10 13.15 5.70 12.83L5.70 12.83L5.70 12.83Q5.29 12.52 5.29 12.28L5.29 12.28L5.29 12.28Q5.29 11.84 5.98 10.64L5.98 10.64L5.98 10.64Q6.66 9.44 6.66 9.07L6.66 9.07L6.66 9.07Q6.66 8.58 4.76 8.58L4.76 8.58L4.76 8.58Q4.48 8.58 3.89 8.61L3.89 8.61L3.36 9.31L3.36 9.31Q2.38 10.63 1.48 12.57L1.48 12.57L1.48 12.57Q1.33 12.92 0.55 12.92L0.55 12.92L0.55 12.92Q-0.24 12.92-0.24 12.70L-0.24 12.70L-0.24 12.70Q-0.24 12.54 0.64 11.35L0.64 11.35L0.64 11.35Q1.51 10.15 2.72 8.69L2.72 8.69L2.72 8.69Q2.51 8.72 2.18 8.75L2.18 8.75L2.18 8.75Q1.86 8.78 1.69 8.80L1.69 8.80L1.69 8.80Q1.51 8.82 1.50 8.82ZM7.31 7.01L7.31 7.01L7.31 7.01Q7.85 6.36 8.13 5.68L8.13 5.68L8.13 5.68Q8.40 5.01 8.40 4.77L8.40 4.77L8.40 4.77Q8.40 4.54 8.16 4.54L8.16 4.54L8.16 4.54Q7.74 4.54 6.78 5.43L6.78 5.43L6.78 5.43Q5.81 6.31 4.68 7.64L4.68 7.64L6.20 7.67L6.20 7.67Q6.76 7.67 7.31 7.01ZM14.53 12.14L14.53 12.14L14.55 12.43L14.55 12.43Q14.55 12.66 13.87 12.66L13.87 12.66L13.87 12.66Q12.68 12.66 12.68 12.18L12.68 12.18L12.68 12.18Q12.68 11.75 13.40 10.06L13.40 10.06L13.40 10.06Q14.11 8.37 14.11 7.99L14.11 7.99L14.11 7.99Q14.11 7.29 13.02 7.29L13.02 7.29L12.54 7.29L11.89 8.46L11.89 8.46Q11.44 9.24 10.92 10.29L10.92 10.29L10.92 10.29Q10.40 11.34 10.11 11.84L10.11 11.84L10.11 11.84Q9.81 12.35 9.53 12.57L9.53 12.57L9.53 12.57Q9.04 12.96 8.25 12.96L8.25 12.96L8.25 12.96Q7.88 12.96 7.84 12.84L7.84 12.84L7.84 12.84Q7.83 12.80 7.83 12.70L7.83 12.70L7.83 12.70Q7.83 12.60 8.23 11.92L8.23 11.92L8.23 11.92Q8.64 11.24 9.50 9.85L9.50 9.85L9.50 9.85Q10.36 8.46 11.00 7.35L11.00 7.35L10.04 7.39L10.04 7.39Q9.94 7.39 9.90 7.28L9.90 7.28L9.90 7.28Q9.90 7.04 10.15 6.83L10.15 6.83L10.15 6.83Q10.40 6.61 10.61 6.53L10.61 6.53L10.61 6.53Q10.82 6.45 11.54 6.43L11.54 6.43L11.54 6.43Q12.22 5.21 12.70 4.28L12.70 4.28L12.70 4.28Q13.01 3.57 13.01 3.02L13.01 3.02L13.01 2.90L13.01 2.90Q13.01 2.53 14.49 2.53L14.49 2.53L14.49 2.53Q15.25 2.53 15.25 2.81L15.25 2.81L15.25 2.81Q15.25 2.93 14.93 3.33L14.93 3.33L14.93 3.33Q14.62 3.74 13.03 6.44L13.03 6.44L13.03 6.44Q13.45 6.43 13.83 6.26L13.83 6.26L13.83 6.26Q14.21 6.09 15.04 5.32L15.04 5.32L15.04 5.32Q15.86 4.55 17.05 3.09L17.05 3.09L17.05 3.09Q17.08 3.04 17.16 2.95L17.16 2.95L17.16 2.95Q17.25 2.86 17.69 2.71L17.69 2.71L17.69 2.71Q18.13 2.56 18.91 2.56L18.91 2.56L18.91 2.56Q19.68 2.56 19.68 2.81L19.68 2.81L19.68 2.81Q19.68 2.90 18.45 3.77L18.45 3.77L18.45 3.77Q14.76 6.37 14.76 6.79L14.76 6.79L14.76 6.79Q14.76 6.97 15.20 7.29L15.20 7.29L15.20 7.29Q15.65 7.62 15.65 7.94L15.65 7.94L15.65 7.94Q15.65 7.95 15.09 9.65L15.09 9.65L15.09 9.65Q14.53 11.35 14.53 12.14Z"></path></g><!----><!----></svg>